<svg width="163" height="163" viewBox="0 0 163 163" fill="none" xmlns="http://www.w3.org/2000/svg">
<path d="M139.282 123.078L97.7045 81.5L139.282 39.9223C143.771 35.4334 143.771 28.2066 139.282 23.7178C134.793 19.2289 127.567 19.2289 123.078 23.7178L81.5 65.2955L39.9223 23.7178C35.4334 19.2289 28.2066 19.2289 23.7178 23.7178C19.2289 28.2066 19.2289 35.4334 23.7178 39.9223L65.2955 81.5L23.7178 123.078C19.2289 127.567 19.2289 134.793 23.7178 139.282C28.2066 143.771 35.4334 143.771 39.9223 139.282L81.5 97.7045L123.078 139.282C127.567 143.771 134.793 143.771 139.282 139.282C143.739 134.793 143.739 127.535 139.282 123.078Z" fill="white"/>
</svg>
