<svg width="128" height="128" viewBox="0 0 128 128" fill="none" xmlns="http://www.w3.org/2000/svg">
<path d="M28.2 46.3L11.9 62.7C11.5 63.1 11.3 63.6 11.3 64.1C11.3 64.7 11.5 65.2 11.9 65.5L28.1 81.7C28.9 82.5 30.1 82.5 30.9 81.7C31.3 81.3 31.5 80.8 31.5 80.3C31.5 79.8 31.3 79.2 30.9 78.9L18.1 66H81.8C82.9 66 83.8 65.1 83.8 64C83.8 62.9 82.9 62 81.8 62H18.1L31 49.1C31.4 48.7 31.6 48.2 31.6 47.7C31.6 47.2 31.4 46.7 31 46.3C30.3 45.5 29 45.5 28.2 46.3Z" fill="#B91C1C"/>
<path d="M95 16H51C45.5 16 41 20.5 41 26V42.3H45V26C45 22.7 47.7 20 51 20H95C98.3 20 101 22.7 101 26V103C101 106.3 98.3 109 95 109H51C47.7 109 45 106.3 45 103V85.7H41V103C41 108.5 45.5 113 51 113H95C100.5 113 105 108.5 105 103V26C105 20.5 100.5 16 95 16Z" fill="#B91C1C"/>
</svg>
