<svg width="23" height="27" viewBox="0 0 23 27" fill="none" xmlns="http://www.w3.org/2000/svg">
<path d="M3.568 26.002C3.078 26.002 2.588 25.875 2.139 25.619C1.69304 25.3693 1.32224 25.0045 1.06527 24.5626C0.808295 24.1208 0.674558 23.6181 0.678001 23.107V3.892C0.678001 2.839 1.224 1.9 2.139 1.38C3.053 0.858998 4.139 0.869998 5.044 1.409L21.186 11.017C22.069 11.543 22.597 12.471 22.597 13.5C22.597 14.529 22.069 15.457 21.186 15.983L5.045 25.591C4.59877 25.8587 4.0884 26.0008 3.568 26.002ZM3.572 3C3.41599 3.00137 3.26288 3.04232 3.127 3.119C2.98925 3.19528 2.8747 3.30741 2.79548 3.44349C2.71626 3.57957 2.67532 3.73455 2.677 3.892V23.108C2.677 23.575 2.991 23.804 3.127 23.881C3.26311 23.9604 3.41817 24.0015 3.57574 23.9999C3.73331 23.9983 3.88752 23.9541 4.022 23.872L20.163 14.264C20.555 14.031 20.598 13.652 20.598 13.5C20.598 13.348 20.556 12.969 20.163 12.736L4.021 3.128C3.88604 3.04465 3.73062 3.00034 3.572 3Z" fill="white"/>
</svg>
